<svg id="Group_5180" data-name="Group 5180" xmlns="http://www.w3.org/2000/svg" width="30.662" height="18.936" viewBox="0 0 30.662 18.936">
  <path id="Path_6480" data-name="Path 6480" d="M972.993,877.27a3.233,3.233,0,0,1,3.233,3.233c0,1.785-1.447,4-3.233,4s-3.233-2.212-3.233-4A3.233,3.233,0,0,1,972.993,877.27Z" transform="translate(-968.263 -877.27)" fill="#1d87c9"/>
  <path id="Path_6481" data-name="Path 6481" d="M986.459,897.5h-21.2v-.013a4.73,4.73,0,1,1,4.635-5.681,4.77,4.77,0,0,0,.1-.95,4.713,4.713,0,0,0-1.6-3.546,4.558,4.558,0,0,1,3.645-1.816,4.608,4.608,0,0,1,.685.051,7.907,7.907,0,1,1,15.547,2.851,4.731,4.731,0,0,1-1.8,9.1Z" transform="translate(-960.528 -878.56)" fill="#1d87c9"/>
</svg>
